<svg xmlns="http://www.w3.org/2000/svg" width="256" height="256" viewBox="0 0 256 256" role="img" aria-label="Maestro: The Inline Admin Menu Editor"><defs><linearGradient id="bg" x1="0" y1="0" x2="0.7" y2="1"><stop offset="0" stop-color="#124152"/><stop offset="1" stop-color="#0c2f3a"/></linearGradient></defs><rect width="256" height="256" fill="#0c2f3a"/><polygon points="0,0 256,0 256,206 0,116" fill="url(#bg)"/><polygon points="252.0,6.0 234.4,365.6 206.9,363.2" fill="#ef6f53" opacity="0.16"/><polygon points="252.0,6.0 183.3,359.4 156.4,353.1" fill="#f0b24a" opacity="0.11"/><polygon points="252.0,6.0 133.6,346.0 107.9,335.9" fill="#f2e7cf" opacity="0.07"/><polygon points="252.0,6.0 86.3,325.6 62.3,312.0" fill="#ef6f53" opacity="0.16"/><polygon points="252.0,6.0 42.4,298.7 20.6,281.8" fill="#f0b24a" opacity="0.11"/><polygon points="252.0,6.0 2.8,265.8 -16.4,246.0" fill="#f2e7cf" opacity="0.07"/><polygon points="252.0,6.0 -31.7,227.6 -47.9,205.2" fill="#ef6f53" opacity="0.16"/><polygon points="252.0,6.0 -60.4,184.9 -73.2,160.4" fill="#f0b24a" opacity="0.11"/><polygon points="252.0,6.0 -82.7,138.5 -91.9,112.5" fill="#f2e7cf" opacity="0.07"/><polygon points="252.0,6.0 -98.2,89.4 -103.6,62.3" fill="#ef6f53" opacity="0.16"/><polygon points="252.0,6.0 -106.5,38.6 -108.0,11.0" fill="#f0b24a" opacity="0.11"/><polygon points="4.0,250.0 302.4,218.6 303.8,239.5" fill="#ef6f53" opacity="0.06"/><polygon points="4.0,250.0 287.7,152.3 293.8,172.4" fill="#f2e7cf" opacity="0.045"/><polygon points="4.0,250.0 258.4,91.0 268.9,109.2" fill="#ef6f53" opacity="0.06"/><polygon points="4.0,250.0 216.1,37.9 230.4,53.2" fill="#f2e7cf" opacity="0.045"/><polygon points="4.0,250.0 163.0,-4.4 180.3,7.3" fill="#ef6f53" opacity="0.06"/><polygon points="4.0,250.0 101.7,-33.7 121.2,-26.2" fill="#f2e7cf" opacity="0.045"/><polygon points="4.0,250.0 35.4,-48.4 56.1,-45.4" fill="#ef6f53" opacity="0.06"/><rect x="63" y="67" width="108" height="22" fill="#04161c"/><rect x="37" y="69" width="18" height="18" fill="#04161c"/><rect x="63" y="103" width="152" height="22" fill="#04161c"/><rect x="37" y="105" width="18" height="18" fill="#04161c"/><rect x="63" y="139" width="124" height="22" fill="#04161c"/><rect x="37" y="141" width="18" height="18" fill="#04161c"/><rect x="63" y="175" width="170" height="22" fill="#04161c"/><rect x="37" y="177" width="18" height="18" fill="#04161c"/><rect x="34" y="65" width="18" height="18" fill="#f0b24a"/><polygon points="34,65 52,65 34,83" fill="#ffffff" opacity="0.18"/><rect x="60" y="63" width="66" height="22" fill="#f2e7cf"/><rect x="126" y="63" width="42" height="22" fill="#d8c79f"/><rect x="34" y="101" width="18" height="18" fill="#ef6f53"/><polygon points="34,101 52,101 34,119" fill="#ffffff" opacity="0.18"/><rect x="60" y="99" width="94" height="22" fill="#f2e7cf"/><rect x="154" y="99" width="58" height="22" fill="#d8c79f"/><rect x="34" y="137" width="18" height="18" fill="#f0b24a"/><polygon points="34,137 52,137 34,155" fill="#ffffff" opacity="0.18"/><rect x="60" y="135" width="76" height="22" fill="#f2e7cf"/><rect x="136" y="135" width="48" height="22" fill="#d8c79f"/><rect x="34" y="173" width="18" height="18" fill="#ef6f53"/><polygon points="34,173 52,173 34,191" fill="#ffffff" opacity="0.18"/><rect x="60" y="171" width="105" height="22" fill="#f2e7cf"/><rect x="165" y="171" width="65" height="22" fill="#d8c79f"/><polygon points="62.1,200.1 212,60 71.9,209.9" fill="#04161c" opacity="0.5"/><polygon points="59.1,197.1 209,57 64,202" fill="#f0b24a"/><polygon points="64,202 209,57 68.9,206.9" fill="#8a4a22"/><line x1="64" y1="202" x2="209" y2="57" stroke="#04161c" stroke-width="1"/><polygon points="59.1,197.1 209,57 68.9,206.9" fill="none" stroke="#04161c" stroke-width="2.4"/><polygon points="59,193 73,207 59,221 45,207" fill="#04161c" opacity="0.5"/><polygon points="59,194 72,207 59,220 46,207" fill="#f0b24a" stroke="#04161c" stroke-width="2" opacity="1.0"/><polygon points="59,200 66,207 59,214 52,207" fill="#ef6f53" opacity="1.0"/><polygon points="224,35.5 228.5,40 224,44.5 219.5,40" fill="#ef6f53" opacity="1.0"/><polygon points="236,23.8 239.2,27 236,30.2 232.8,27" fill="#ef6f53" opacity="1.0"/><polygon points="245,15.8 247.2,18 245,20.2 242.8,18" fill="#ef6f53" opacity="1.0"/></svg>